<?xml version="1.0" standalone="no"?>
<!DOCTYPE svg PUBLIC "-//W3C//DTD SVG 20010904//EN"
 "http://www.w3.org/TR/2001/REC-SVG-20010904/DTD/svg10.dtd">
<svg version="1.0" xmlns="http://www.w3.org/2000/svg"
 width="64.000000pt" height="64.000000pt" viewBox="0 0 64.000000 64.000000"
 preserveAspectRatio="xMidYMid meet">
<metadata>
Created by potrace 1.16, written by Peter Selinger 2001-2019
</metadata>
<g transform="translate(0.000000,64.000000) scale(0.100000,-0.100000)"
fill="#000000" stroke="none">
<path d="M213 622 c-139 -50 -222 -179 -211 -327 6 -70 40 -155 62 -155 26 0
27 18 4 62 -32 60 -32 175 -1 234 34 63 66 97 125 129 46 26 63 30 128 30 112
-1 190 -47 245 -147 26 -46 30 -63 30 -128 0 -58 -5 -85 -23 -118 -13 -23 -20
-47 -17 -52 14 -22 37 -7 58 38 31 66 31 197 1 263 -31 66 -87 124 -151 155
-73 36 -176 42 -250 16z"/>
<path d="M258 474 c-77 -41 -75 -169 2 -209 108 -56 221 57 165 165 -28 55
-109 76 -167 44z m96 -35 c58 -27 55 -115 -5 -139 -63 -26 -125 36 -100 99 19
44 60 60 105 40z"/>
<path d="M214 184 c-23 -8 -59 -30 -80 -49 -48 -42 -42 -57 41 -100 52 -27 69
-30 145 -30 76 0 93 3 145 30 83 43 89 58 42 100 -22 19 -60 41 -85 49 -56 20
-153 19 -208 0z m214 -49 c28 -13 52 -29 52 -34 0 -6 -19 -21 -42 -33 -61 -32
-175 -32 -235 0 -24 12 -43 27 -43 33 0 21 103 59 160 59 37 0 72 -8 108 -25z"/>
</g>
</svg>
